<svg xmlns="http://www.w3.org/2000/svg" xmlns:xlink="http://www.w3.org/1999/xlink" width="155" zoomAndPan="magnify" viewBox="0 0 116.25 41.25" height="55" preserveAspectRatio="xMidYMid meet" version="1.0"><defs><g/><clipPath id="2d40f08a6b"><path d="M 13 28 L 22 28 L 22 40.511719 L 13 40.511719 Z M 13 28 " clip-rule="nonzero"/></clipPath></defs><g fill="#222222" fill-opacity="1"><g transform="translate(42.359404, 17.82741)"><g><path d="M 6.46875 -11.9375 C 6.101562 -11.90625 5.832031 -11.851562 5.65625 -11.78125 C 5.488281 -11.71875 5.375 -11.585938 5.3125 -11.390625 C 5.257812 -11.191406 5.234375 -10.875 5.234375 -10.4375 L 5.234375 -1.84375 C 5.234375 -1.394531 5.265625 -1.070312 5.328125 -0.875 C 5.390625 -0.6875 5.503906 -0.554688 5.671875 -0.484375 C 5.835938 -0.410156 6.101562 -0.363281 6.46875 -0.34375 L 6.46875 0 C 5.800781 -0.03125 4.835938 -0.046875 3.578125 -0.046875 C 2.171875 -0.046875 1.140625 -0.03125 0.484375 0 L 0.484375 -0.34375 C 0.859375 -0.363281 1.128906 -0.410156 1.296875 -0.484375 C 1.460938 -0.554688 1.570312 -0.6875 1.625 -0.875 C 1.6875 -1.070312 1.71875 -1.394531 1.71875 -1.84375 L 1.71875 -10.4375 C 1.71875 -10.875 1.6875 -11.191406 1.625 -11.390625 C 1.5625 -11.585938 1.445312 -11.71875 1.28125 -11.78125 C 1.125 -11.851562 0.859375 -11.90625 0.484375 -11.9375 L 0.484375 -12.28125 C 1.140625 -12.25 2.171875 -12.234375 3.578125 -12.234375 C 4.828125 -12.234375 5.789062 -12.25 6.46875 -12.28125 Z M 6.46875 -11.9375 "/></g></g></g><g fill="#222222" fill-opacity="1"><g transform="translate(49.309305, 17.82741)"><g><path d="M 5.234375 -12.515625 C 5.890625 -12.515625 6.421875 -12.453125 6.828125 -12.328125 C 7.242188 -12.210938 7.648438 -12.046875 8.046875 -11.828125 C 8.171875 -11.753906 8.28125 -11.691406 8.375 -11.640625 C 8.476562 -11.597656 8.566406 -11.578125 8.640625 -11.578125 C 8.742188 -11.578125 8.820312 -11.640625 8.875 -11.765625 C 8.9375 -11.890625 8.984375 -12.082031 9.015625 -12.34375 L 9.421875 -12.34375 C 9.359375 -11.507812 9.328125 -10.097656 9.328125 -8.109375 L 8.9375 -8.109375 C 8.882812 -8.773438 8.726562 -9.40625 8.46875 -10 C 8.21875 -10.601562 7.875 -11.09375 7.4375 -11.46875 C 7 -11.851562 6.492188 -12.046875 5.921875 -12.046875 C 5.378906 -12.046875 4.945312 -11.90625 4.625 -11.625 C 4.300781 -11.34375 4.140625 -10.945312 4.140625 -10.4375 C 4.140625 -10.039062 4.226562 -9.695312 4.40625 -9.40625 C 4.582031 -9.125 4.835938 -8.847656 5.171875 -8.578125 C 5.503906 -8.304688 6.050781 -7.90625 6.8125 -7.375 C 6.882812 -7.332031 6.953125 -7.289062 7.015625 -7.25 C 7.078125 -7.207031 7.140625 -7.160156 7.203125 -7.109375 C 7.835938 -6.671875 8.34375 -6.28125 8.71875 -5.9375 C 9.101562 -5.59375 9.410156 -5.195312 9.640625 -4.75 C 9.878906 -4.300781 10 -3.78125 10 -3.1875 C 10 -2.4375 9.785156 -1.800781 9.359375 -1.28125 C 8.941406 -0.769531 8.375 -0.382812 7.65625 -0.125 C 6.945312 0.125 6.160156 0.25 5.296875 0.25 C 4.585938 0.25 4 0.1875 3.53125 0.0625 C 3.0625 -0.0507812 2.625 -0.207031 2.21875 -0.40625 C 1.96875 -0.5625 1.769531 -0.640625 1.625 -0.640625 C 1.519531 -0.640625 1.4375 -0.578125 1.375 -0.453125 C 1.320312 -0.335938 1.28125 -0.144531 1.25 0.125 L 0.84375 0.125 C 0.894531 -0.664062 0.921875 -2.34375 0.921875 -4.90625 L 1.3125 -4.90625 C 1.394531 -3.53125 1.6875 -2.414062 2.1875 -1.5625 C 2.6875 -0.707031 3.445312 -0.28125 4.46875 -0.28125 C 5.101562 -0.28125 5.609375 -0.425781 5.984375 -0.71875 C 6.367188 -1.019531 6.5625 -1.441406 6.5625 -1.984375 C 6.5625 -2.640625 6.351562 -3.203125 5.9375 -3.671875 C 5.53125 -4.140625 4.894531 -4.660156 4.03125 -5.234375 C 3.332031 -5.703125 2.773438 -6.109375 2.359375 -6.453125 C 1.941406 -6.796875 1.597656 -7.195312 1.328125 -7.65625 C 1.066406 -8.113281 0.9375 -8.644531 0.9375 -9.25 C 0.9375 -9.976562 1.128906 -10.585938 1.515625 -11.078125 C 1.910156 -11.566406 2.4375 -11.925781 3.09375 -12.15625 C 3.75 -12.394531 4.460938 -12.515625 5.234375 -12.515625 Z M 5.234375 -12.515625 "/></g></g></g><g fill="#222222" fill-opacity="1"><g transform="translate(59.933477, 17.82741)"><g><path d="M 6.953125 -6.4375 C 8.085938 -6.375 9.019531 -6.191406 9.75 -5.890625 C 10.488281 -5.597656 11.023438 -5.226562 11.359375 -4.78125 C 11.691406 -4.332031 11.859375 -3.859375 11.859375 -3.359375 C 11.859375 -2.234375 11.40625 -1.390625 10.5 -0.828125 C 9.601562 -0.273438 8.320312 0 6.65625 0 C 6.320312 0 6.039062 -0.00390625 5.8125 -0.015625 C 5.019531 -0.0351562 4.25 -0.046875 3.5 -0.046875 C 2.144531 -0.046875 1.140625 -0.03125 0.484375 0 L 0.484375 -0.34375 C 0.859375 -0.363281 1.128906 -0.410156 1.296875 -0.484375 C 1.460938 -0.554688 1.570312 -0.6875 1.625 -0.875 C 1.6875 -1.070312 1.71875 -1.394531 1.71875 -1.84375 L 1.71875 -10.4375 C 1.71875 -10.875 1.6875 -11.191406 1.625 -11.390625 C 1.5625 -11.585938 1.445312 -11.71875 1.28125 -11.78125 C 1.125 -11.851562 0.859375 -11.90625 0.484375 -11.9375 L 0.484375 -12.28125 C 1.140625 -12.25 2.132812 -12.234375 3.46875 -12.234375 L 5.46875 -12.25 C 5.695312 -12.257812 5.960938 -12.265625 6.265625 -12.265625 C 7.785156 -12.265625 8.945312 -12.015625 9.75 -11.515625 C 10.5625 -11.023438 10.96875 -10.367188 10.96875 -9.546875 C 10.96875 -9.109375 10.816406 -8.671875 10.515625 -8.234375 C 10.210938 -7.804688 9.757812 -7.429688 9.15625 -7.109375 C 8.550781 -6.785156 7.816406 -6.570312 6.953125 -6.46875 Z M 6.171875 -11.9375 C 5.910156 -11.9375 5.710938 -11.894531 5.578125 -11.8125 C 5.441406 -11.726562 5.347656 -11.582031 5.296875 -11.375 C 5.253906 -11.164062 5.234375 -10.851562 5.234375 -10.4375 L 5.234375 -6.515625 L 5.703125 -6.515625 C 6.328125 -6.515625 6.765625 -6.769531 7.015625 -7.28125 C 7.265625 -7.800781 7.390625 -8.488281 7.390625 -9.34375 C 7.390625 -10.226562 7.289062 -10.878906 7.09375 -11.296875 C 6.90625 -11.722656 6.597656 -11.9375 6.171875 -11.9375 Z M 6.359375 -0.40625 C 7.597656 -0.40625 8.21875 -1.414062 8.21875 -3.4375 C 8.21875 -4.34375 8 -5.03125 7.5625 -5.5 C 7.125 -5.976562 6.429688 -6.21875 5.484375 -6.21875 L 5.234375 -6.21875 L 5.234375 -1.84375 C 5.234375 -1.425781 5.257812 -1.117188 5.3125 -0.921875 C 5.375 -0.722656 5.484375 -0.585938 5.640625 -0.515625 C 5.796875 -0.441406 6.035156 -0.40625 6.359375 -0.40625 Z M 6.359375 -0.40625 "/></g></g></g><g clip-path="url(#2d40f08a6b)"><g fill="#222222" fill-opacity="1"><g transform="translate(13.417109, 37.770106)"><g><path d="M 4.484375 -9.25 C 5.453125 -9.25 6.238281 -9.066406 6.84375 -8.703125 C 7.457031 -8.347656 7.765625 -7.859375 7.765625 -7.234375 C 7.765625 -6.554688 7.40625 -5.953125 6.6875 -5.421875 C 5.96875 -4.898438 4.945312 -4.550781 3.625 -4.375 C 3.757812 -4.382812 3.960938 -4.390625 4.234375 -4.390625 C 5.503906 -4.390625 6.515625 -4.148438 7.265625 -3.671875 C 8.015625 -3.191406 8.390625 -2.539062 8.390625 -1.71875 C 8.390625 -0.875 7.992188 -0.117188 7.203125 0.546875 C 6.421875 1.210938 5.410156 1.722656 4.171875 2.078125 C 2.941406 2.441406 1.691406 2.625 0.421875 2.625 L 0.421875 2.25 C 1.148438 2.21875 1.878906 2.046875 2.609375 1.734375 C 3.347656 1.421875 3.960938 0.972656 4.453125 0.390625 C 4.941406 -0.191406 5.1875 -0.890625 5.1875 -1.703125 C 5.1875 -2.378906 5.023438 -2.9375 4.703125 -3.375 C 4.378906 -3.8125 3.9375 -4.050781 3.375 -4.09375 C 3.144531 -3.988281 2.960938 -3.910156 2.828125 -3.859375 C 2.703125 -3.816406 2.566406 -3.796875 2.421875 -3.796875 C 2.304688 -3.796875 2.21875 -3.816406 2.15625 -3.859375 C 2.101562 -3.898438 2.078125 -3.972656 2.078125 -4.078125 C 2.078125 -4.210938 2.132812 -4.3125 2.25 -4.375 C 2.363281 -4.4375 2.515625 -4.46875 2.703125 -4.46875 C 2.816406 -4.46875 2.925781 -4.460938 3.03125 -4.453125 C 3.132812 -4.441406 3.226562 -4.429688 3.3125 -4.421875 C 4.195312 -5.003906 4.640625 -5.738281 4.640625 -6.625 C 4.640625 -7.125 4.503906 -7.5 4.234375 -7.75 C 3.960938 -8.007812 3.582031 -8.140625 3.09375 -8.140625 C 2.632812 -8.140625 2.210938 -8.03125 1.828125 -7.8125 C 1.441406 -7.601562 1.113281 -7.300781 0.84375 -6.90625 L 0.53125 -7.078125 C 0.925781 -7.734375 1.429688 -8.257812 2.046875 -8.65625 C 2.660156 -9.050781 3.472656 -9.25 4.484375 -9.25 Z M 4.484375 -9.25 "/></g></g></g></g><g fill="#222222" fill-opacity="1"><g transform="translate(22.290804, 37.770106)"><g><path d="M 6.265625 -12.28125 C 8.648438 -12.28125 10.4375 -11.765625 11.625 -10.734375 C 12.820312 -9.710938 13.421875 -8.226562 13.421875 -6.28125 C 13.421875 -5.019531 13.128906 -3.914062 12.546875 -2.96875 C 11.960938 -2.03125 11.117188 -1.300781 10.015625 -0.78125 C 8.921875 -0.257812 7.617188 0 6.109375 0 L 5.03125 -0.015625 C 4.332031 -0.0351562 3.820312 -0.046875 3.5 -0.046875 C 2.144531 -0.046875 1.140625 -0.03125 0.484375 0 L 0.484375 -0.34375 C 0.859375 -0.363281 1.128906 -0.410156 1.296875 -0.484375 C 1.460938 -0.554688 1.570312 -0.6875 1.625 -0.875 C 1.6875 -1.070312 1.71875 -1.394531 1.71875 -1.84375 L 1.71875 -10.4375 C 1.71875 -10.875 1.6875 -11.191406 1.625 -11.390625 C 1.5625 -11.585938 1.445312 -11.71875 1.28125 -11.78125 C 1.125 -11.851562 0.859375 -11.90625 0.484375 -11.9375 L 0.484375 -12.28125 C 1.015625 -12.25 1.800781 -12.234375 2.84375 -12.234375 L 3.46875 -12.234375 L 4.234375 -12.25 C 5.203125 -12.269531 5.878906 -12.28125 6.265625 -12.28125 Z M 6.515625 -11.96875 C 6.160156 -11.96875 5.894531 -11.925781 5.71875 -11.84375 C 5.539062 -11.757812 5.414062 -11.613281 5.34375 -11.40625 C 5.269531 -11.195312 5.234375 -10.882812 5.234375 -10.46875 L 5.234375 -1.796875 C 5.234375 -1.378906 5.269531 -1.066406 5.34375 -0.859375 C 5.414062 -0.660156 5.539062 -0.519531 5.71875 -0.4375 C 5.894531 -0.351562 6.164062 -0.3125 6.53125 -0.3125 C 7.675781 -0.3125 8.503906 -0.804688 9.015625 -1.796875 C 9.523438 -2.785156 9.78125 -4.253906 9.78125 -6.203125 C 9.78125 -8.160156 9.515625 -9.609375 8.984375 -10.546875 C 8.460938 -11.492188 7.640625 -11.96875 6.515625 -11.96875 Z M 6.515625 -11.96875 "/></g></g></g><g fill="#222222" fill-opacity="1"><g transform="translate(36.346606, 37.770106)"><g/></g></g><g fill="#222222" fill-opacity="1"><g transform="translate(40.211512, 37.770106)"><g><path d="M 5.234375 -4.953125 L 5.234375 -2.015625 C 5.234375 -1.523438 5.28125 -1.171875 5.375 -0.953125 C 5.476562 -0.734375 5.660156 -0.585938 5.921875 -0.515625 C 6.179688 -0.441406 6.59375 -0.40625 7.15625 -0.40625 L 7.15625 0 C 5.601562 -0.03125 4.414062 -0.046875 3.59375 -0.046875 C 3.050781 -0.046875 2.289062 -0.0351562 1.3125 -0.015625 L 0.484375 0 L 0.484375 -0.34375 C 0.859375 -0.363281 1.128906 -0.410156 1.296875 -0.484375 C 1.460938 -0.554688 1.570312 -0.6875 1.625 -0.875 C 1.6875 -1.070312 1.71875 -1.394531 1.71875 -1.84375 L 1.71875 -10.4375 C 1.71875 -10.875 1.6875 -11.191406 1.625 -11.390625 C 1.5625 -11.585938 1.445312 -11.71875 1.28125 -11.78125 C 1.125 -11.851562 0.859375 -11.90625 0.484375 -11.9375 L 0.484375 -12.28125 C 1.140625 -12.25 2.132812 -12.234375 3.46875 -12.234375 L 5.46875 -12.25 C 5.695312 -12.257812 5.960938 -12.265625 6.265625 -12.265625 C 7.972656 -12.265625 9.269531 -11.953125 10.15625 -11.328125 C 11.039062 -10.710938 11.484375 -9.882812 11.484375 -8.84375 C 11.484375 -8.207031 11.304688 -7.597656 10.953125 -7.015625 C 10.609375 -6.429688 10.019531 -5.941406 9.1875 -5.546875 C 8.351562 -5.148438 7.25 -4.953125 5.875 -4.953125 Z M 6.171875 -11.9375 C 5.910156 -11.9375 5.710938 -11.894531 5.578125 -11.8125 C 5.441406 -11.726562 5.347656 -11.582031 5.296875 -11.375 C 5.253906 -11.164062 5.234375 -10.851562 5.234375 -10.4375 L 5.234375 -5.3125 L 5.703125 -5.3125 C 6.515625 -5.3125 7.070312 -5.609375 7.375 -6.203125 C 7.6875 -6.804688 7.84375 -7.625 7.84375 -8.65625 C 7.84375 -9.78125 7.710938 -10.609375 7.453125 -11.140625 C 7.203125 -11.671875 6.773438 -11.9375 6.171875 -11.9375 Z M 6.171875 -11.9375 "/></g></g></g><g fill="#222222" fill-opacity="1"><g transform="translate(51.962231, 37.770106)"><g><path d="M 6.6875 -9.25 C 7.257812 -9.25 7.671875 -9.070312 7.921875 -8.71875 C 8.171875 -8.375 8.296875 -7.96875 8.296875 -7.5 C 8.296875 -6.976562 8.144531 -6.5625 7.84375 -6.25 C 7.550781 -5.945312 7.164062 -5.796875 6.6875 -5.796875 C 6.195312 -5.796875 5.816406 -5.90625 5.546875 -6.125 C 5.285156 -6.351562 5.15625 -6.660156 5.15625 -7.046875 C 5.15625 -7.722656 5.445312 -8.257812 6.03125 -8.65625 C 5.820312 -8.65625 5.640625 -8.613281 5.484375 -8.53125 C 5.191406 -8.40625 4.945312 -8.203125 4.75 -7.921875 C 4.550781 -7.640625 4.453125 -7.328125 4.453125 -6.984375 L 4.453125 -1.78125 C 4.453125 -1.238281 4.566406 -0.863281 4.796875 -0.65625 C 5.023438 -0.457031 5.410156 -0.359375 5.953125 -0.359375 L 5.953125 0 C 5.796875 0 5.664062 -0.00390625 5.5625 -0.015625 C 4.351562 -0.046875 3.546875 -0.0625 3.140625 -0.0625 C 2.785156 -0.0625 1.984375 -0.046875 0.734375 -0.015625 C 0.640625 -0.00390625 0.515625 0 0.359375 0 L 0.359375 -0.359375 C 0.722656 -0.359375 0.972656 -0.445312 1.109375 -0.625 C 1.253906 -0.8125 1.328125 -1.140625 1.328125 -1.609375 L 1.328125 -7.109375 C 1.328125 -7.640625 1.253906 -8.023438 1.109375 -8.265625 C 0.972656 -8.515625 0.722656 -8.640625 0.359375 -8.640625 L 0.359375 -9 C 0.734375 -8.96875 1.09375 -8.953125 1.4375 -8.953125 C 2.644531 -8.953125 3.648438 -9.03125 4.453125 -9.1875 L 4.453125 -7.9375 C 4.890625 -8.8125 5.632812 -9.25 6.6875 -9.25 Z M 6.6875 -9.25 "/></g></g></g><g fill="#222222" fill-opacity="1"><g transform="translate(60.298656, 37.770106)"><g><path d="M 2.796875 -13.5625 C 3.398438 -13.5625 3.863281 -13.429688 4.1875 -13.171875 C 4.519531 -12.921875 4.6875 -12.554688 4.6875 -12.078125 C 4.6875 -11.585938 4.519531 -11.210938 4.1875 -10.953125 C 3.863281 -10.703125 3.398438 -10.578125 2.796875 -10.578125 C 2.179688 -10.578125 1.710938 -10.703125 1.390625 -10.953125 C 1.066406 -11.210938 0.90625 -11.585938 0.90625 -12.078125 C 0.90625 -12.554688 1.066406 -12.921875 1.390625 -13.171875 C 1.710938 -13.429688 2.179688 -13.5625 2.796875 -13.5625 Z M 4.453125 -1.609375 C 4.453125 -1.140625 4.523438 -0.8125 4.671875 -0.625 C 4.816406 -0.445312 5.066406 -0.359375 5.421875 -0.359375 L 5.421875 0 C 4.179688 -0.0390625 3.363281 -0.0625 2.96875 -0.0625 C 2.570312 -0.0625 1.703125 -0.0390625 0.359375 0 L 0.359375 -0.359375 C 0.722656 -0.359375 0.972656 -0.445312 1.109375 -0.625 C 1.253906 -0.8125 1.328125 -1.140625 1.328125 -1.609375 L 1.328125 -7.109375 C 1.328125 -7.640625 1.253906 -8.023438 1.109375 -8.265625 C 0.972656 -8.515625 0.722656 -8.640625 0.359375 -8.640625 L 0.359375 -9 C 0.734375 -8.96875 1.09375 -8.953125 1.4375 -8.953125 C 2.644531 -8.953125 3.648438 -9.03125 4.453125 -9.1875 Z M 4.453125 -1.609375 "/></g></g></g><g fill="#222222" fill-opacity="1"><g transform="translate(66.018033, 37.770106)"><g><path d="M 7.21875 -9.25 C 8.144531 -9.25 8.796875 -9.015625 9.171875 -8.546875 C 9.347656 -8.335938 9.472656 -8.054688 9.546875 -7.703125 C 9.628906 -7.359375 9.671875 -6.894531 9.671875 -6.3125 L 9.671875 -1.609375 C 9.671875 -1.140625 9.742188 -0.8125 9.890625 -0.625 C 10.035156 -0.445312 10.289062 -0.359375 10.65625 -0.359375 L 10.65625 0 C 9.40625 -0.0390625 8.59375 -0.0625 8.21875 -0.0625 C 7.820312 -0.0625 7.003906 -0.0390625 5.765625 0 L 5.765625 -0.359375 C 6.054688 -0.359375 6.257812 -0.445312 6.375 -0.625 C 6.5 -0.8125 6.5625 -1.140625 6.5625 -1.609375 L 6.5625 -7.25 C 6.5625 -7.625 6.492188 -7.898438 6.359375 -8.078125 C 6.222656 -8.253906 6.003906 -8.34375 5.703125 -8.34375 C 5.367188 -8.34375 5.078125 -8.222656 4.828125 -7.984375 C 4.578125 -7.742188 4.453125 -7.445312 4.453125 -7.09375 L 4.453125 -1.609375 C 4.453125 -1.140625 4.507812 -0.8125 4.625 -0.625 C 4.738281 -0.445312 4.945312 -0.359375 5.25 -0.359375 L 5.25 0 C 4.09375 -0.0390625 3.332031 -0.0625 2.96875 -0.0625 C 2.570312 -0.0625 1.703125 -0.0390625 0.359375 0 L 0.359375 -0.359375 C 0.722656 -0.359375 0.972656 -0.445312 1.109375 -0.625 C 1.253906 -0.8125 1.328125 -1.140625 1.328125 -1.609375 L 1.328125 -7.109375 C 1.328125 -7.640625 1.253906 -8.023438 1.109375 -8.265625 C 0.972656 -8.515625 0.722656 -8.640625 0.359375 -8.640625 L 0.359375 -9 C 0.734375 -8.96875 1.09375 -8.953125 1.4375 -8.953125 C 2.644531 -8.953125 3.648438 -9.03125 4.453125 -9.1875 L 4.453125 -7.9375 C 4.972656 -8.8125 5.894531 -9.25 7.21875 -9.25 Z M 7.21875 -9.25 "/></g></g></g><g fill="#222222" fill-opacity="1"><g transform="translate(76.850176, 37.770106)"><g><path d="M 4.375 -9 L 6.078125 -9 L 6.078125 -8.65625 L 4.375 -8.65625 L 4.375 -1.453125 C 4.375 -1.222656 4.410156 -1.0625 4.484375 -0.96875 C 4.566406 -0.875 4.703125 -0.828125 4.890625 -0.828125 C 5.023438 -0.828125 5.179688 -0.867188 5.359375 -0.953125 C 5.535156 -1.035156 5.691406 -1.160156 5.828125 -1.328125 L 6.09375 -1.125 C 5.5625 -0.207031 4.738281 0.25 3.625 0.25 C 2.820312 0.25 2.226562 0.0507812 1.84375 -0.34375 C 1.59375 -0.59375 1.429688 -0.894531 1.359375 -1.25 C 1.285156 -1.601562 1.25 -2.101562 1.25 -2.75 L 1.25 -8.65625 L -0.0625 -8.65625 L -0.0625 -9 L 1.25 -9 L 1.25 -11.046875 C 1.875 -11.046875 2.4375 -11.101562 2.9375 -11.21875 C 3.4375 -11.34375 3.914062 -11.539062 4.375 -11.8125 Z M 4.375 -9 "/></g></g></g><g fill="#222222" fill-opacity="1"><g transform="translate(82.916171, 37.770106)"><g><path d="M 5.78125 -1.640625 C 6.625 -1.640625 7.320312 -2.03125 7.875 -2.8125 L 8.171875 -2.703125 C 7.910156 -1.890625 7.476562 -1.191406 6.875 -0.609375 C 6.269531 -0.0351562 5.492188 0.25 4.546875 0.25 C 3.328125 0.25 2.351562 -0.125 1.625 -0.875 C 0.894531 -1.632812 0.53125 -2.835938 0.53125 -4.484375 C 0.53125 -6.078125 0.9375 -7.269531 1.75 -8.0625 C 2.570312 -8.851562 3.65625 -9.25 5 -9.25 C 7.175781 -9.25 8.265625 -7.953125 8.265625 -5.359375 L 3.796875 -5.359375 C 3.785156 -5.222656 3.78125 -5.015625 3.78125 -4.734375 C 3.78125 -3.617188 3.972656 -2.820312 4.359375 -2.34375 C 4.742188 -1.875 5.21875 -1.640625 5.78125 -1.640625 Z M 4.875 -8.84375 C 4.226562 -8.84375 3.847656 -7.789062 3.734375 -5.6875 L 5.734375 -5.6875 C 5.753906 -6.613281 5.691406 -7.367188 5.546875 -7.953125 C 5.398438 -8.546875 5.175781 -8.84375 4.875 -8.84375 Z M 4.875 -8.84375 "/></g></g></g><g fill="#222222" fill-opacity="1"><g transform="translate(91.633884, 37.770106)"><g><path d="M 6.6875 -9.25 C 7.257812 -9.25 7.671875 -9.070312 7.921875 -8.71875 C 8.171875 -8.375 8.296875 -7.96875 8.296875 -7.5 C 8.296875 -6.976562 8.144531 -6.5625 7.84375 -6.25 C 7.550781 -5.945312 7.164062 -5.796875 6.6875 -5.796875 C 6.195312 -5.796875 5.816406 -5.90625 5.546875 -6.125 C 5.285156 -6.351562 5.15625 -6.660156 5.15625 -7.046875 C 5.15625 -7.722656 5.445312 -8.257812 6.03125 -8.65625 C 5.820312 -8.65625 5.640625 -8.613281 5.484375 -8.53125 C 5.191406 -8.40625 4.945312 -8.203125 4.75 -7.921875 C 4.550781 -7.640625 4.453125 -7.328125 4.453125 -6.984375 L 4.453125 -1.78125 C 4.453125 -1.238281 4.566406 -0.863281 4.796875 -0.65625 C 5.023438 -0.457031 5.410156 -0.359375 5.953125 -0.359375 L 5.953125 0 C 5.796875 0 5.664062 -0.00390625 5.5625 -0.015625 C 4.351562 -0.046875 3.546875 -0.0625 3.140625 -0.0625 C 2.785156 -0.0625 1.984375 -0.046875 0.734375 -0.015625 C 0.640625 -0.00390625 0.515625 0 0.359375 0 L 0.359375 -0.359375 C 0.722656 -0.359375 0.972656 -0.445312 1.109375 -0.625 C 1.253906 -0.8125 1.328125 -1.140625 1.328125 -1.609375 L 1.328125 -7.109375 C 1.328125 -7.640625 1.253906 -8.023438 1.109375 -8.265625 C 0.972656 -8.515625 0.722656 -8.640625 0.359375 -8.640625 L 0.359375 -9 C 0.734375 -8.96875 1.09375 -8.953125 1.4375 -8.953125 C 2.644531 -8.953125 3.648438 -9.03125 4.453125 -9.1875 L 4.453125 -7.9375 C 4.890625 -8.8125 5.632812 -9.25 6.6875 -9.25 Z M 6.6875 -9.25 "/></g></g></g><g fill="#222222" fill-opacity="1"><g transform="translate(99.970308, 37.770106)"><g><path d="M 4 -9.25 C 4.457031 -9.25 4.882812 -9.195312 5.28125 -9.09375 C 5.675781 -9 5.976562 -8.894531 6.1875 -8.78125 C 6.3125 -8.707031 6.414062 -8.671875 6.5 -8.671875 C 6.75 -8.671875 6.894531 -8.859375 6.9375 -9.234375 L 7.28125 -9.234375 C 7.238281 -8.628906 7.21875 -7.585938 7.21875 -6.109375 L 6.875 -6.109375 C 6.78125 -6.867188 6.5625 -7.507812 6.21875 -8.03125 C 5.875 -8.5625 5.378906 -8.828125 4.734375 -8.828125 C 4.441406 -8.828125 4.195312 -8.738281 4 -8.5625 C 3.8125 -8.394531 3.71875 -8.160156 3.71875 -7.859375 C 3.71875 -7.472656 3.84375 -7.132812 4.09375 -6.84375 C 4.34375 -6.550781 4.742188 -6.191406 5.296875 -5.765625 C 5.316406 -5.742188 5.484375 -5.609375 5.796875 -5.359375 C 6.441406 -4.828125 6.914062 -4.351562 7.21875 -3.9375 C 7.519531 -3.53125 7.671875 -3.023438 7.671875 -2.421875 C 7.671875 -1.921875 7.515625 -1.460938 7.203125 -1.046875 C 6.890625 -0.640625 6.460938 -0.320312 5.921875 -0.09375 C 5.378906 0.132812 4.789062 0.25 4.15625 0.25 C 3.425781 0.25 2.832031 0.101562 2.375 -0.1875 C 2.175781 -0.289062 2.015625 -0.363281 1.890625 -0.40625 C 1.765625 -0.457031 1.640625 -0.484375 1.515625 -0.484375 C 1.285156 -0.484375 1.117188 -0.28125 1.015625 0.125 L 0.671875 0.125 C 0.722656 -0.539062 0.75 -1.695312 0.75 -3.34375 L 1.09375 -3.34375 C 1.195312 -2.394531 1.453125 -1.628906 1.859375 -1.046875 C 2.265625 -0.472656 2.769531 -0.1875 3.375 -0.1875 C 3.664062 -0.1875 3.90625 -0.265625 4.09375 -0.421875 C 4.289062 -0.585938 4.390625 -0.828125 4.390625 -1.140625 C 4.390625 -1.460938 4.320312 -1.75 4.1875 -2 C 4.050781 -2.257812 3.890625 -2.488281 3.703125 -2.6875 C 3.515625 -2.894531 3.207031 -3.191406 2.78125 -3.578125 C 2.289062 -4.023438 1.914062 -4.378906 1.65625 -4.640625 C 1.40625 -4.910156 1.191406 -5.222656 1.015625 -5.578125 C 0.835938 -5.929688 0.75 -6.320312 0.75 -6.75 C 0.75 -7.25 0.894531 -7.6875 1.1875 -8.0625 C 1.488281 -8.445312 1.890625 -8.738281 2.390625 -8.9375 C 2.890625 -9.144531 3.425781 -9.25 4 -9.25 Z M 4 -9.25 "/></g></g></g><g fill="#222222" fill-opacity="1"><g transform="translate(48.923115, 5.092278)"><g><path d="M 1.40625 0.234375 C 1.40625 0.328125 1.382812 0.410156 1.34375 0.484375 C 1.3125 0.554688 1.253906 0.617188 1.171875 0.671875 C 1.097656 0.734375 1.007812 0.773438 0.90625 0.796875 C 0.800781 0.828125 0.679688 0.84375 0.546875 0.84375 C 0.429688 0.84375 0.320312 0.832031 0.21875 0.8125 C 0.125 0.789062 0.046875 0.757812 -0.015625 0.71875 C -0.0859375 0.675781 -0.144531 0.625 -0.1875 0.5625 C -0.226562 0.507812 -0.25 0.453125 -0.25 0.390625 C -0.25 0.296875 -0.21875 0.21875 -0.15625 0.15625 C -0.101562 0.101562 -0.03125 0.078125 0.0625 0.078125 C 0.0820312 0.078125 0.101562 0.078125 0.125 0.078125 C 0.15625 0.0859375 0.191406 0.101562 0.234375 0.125 C 0.109375 0.175781 0.046875 0.269531 0.046875 0.40625 C 0.046875 0.5 0.09375 0.570312 0.1875 0.625 C 0.28125 0.675781 0.40625 0.703125 0.5625 0.703125 C 0.644531 0.703125 0.722656 0.691406 0.796875 0.671875 C 0.867188 0.648438 0.929688 0.625 0.984375 0.59375 C 1.046875 0.5625 1.085938 0.523438 1.109375 0.484375 C 1.140625 0.453125 1.15625 0.414062 1.15625 0.375 C 1.15625 0.320312 1.117188 0.269531 1.046875 0.21875 C 0.972656 0.164062 0.875 0.128906 0.75 0.109375 C 0.507812 0.0664062 0.332031 0.0195312 0.21875 -0.03125 C 0.113281 -0.0820312 0.0625 -0.160156 0.0625 -0.265625 C 0.0625 -0.328125 0.0859375 -0.378906 0.140625 -0.421875 C 0.191406 -0.460938 0.289062 -0.503906 0.4375 -0.546875 L 0.4375 -0.5625 C 0.28125 -0.675781 0.203125 -0.828125 0.203125 -1.015625 C 0.203125 -1.117188 0.222656 -1.210938 0.265625 -1.296875 C 0.304688 -1.390625 0.359375 -1.46875 0.421875 -1.53125 C 0.492188 -1.601562 0.578125 -1.660156 0.671875 -1.703125 C 0.765625 -1.742188 0.863281 -1.765625 0.96875 -1.765625 C 1.132812 -1.765625 1.269531 -1.703125 1.375 -1.578125 C 1.476562 -1.691406 1.578125 -1.75 1.671875 -1.75 C 1.742188 -1.75 1.804688 -1.726562 1.859375 -1.6875 C 1.910156 -1.644531 1.9375 -1.597656 1.9375 -1.546875 C 1.9375 -1.503906 1.921875 -1.46875 1.890625 -1.4375 C 1.859375 -1.40625 1.820312 -1.390625 1.78125 -1.390625 C 1.75 -1.390625 1.722656 -1.394531 1.703125 -1.40625 C 1.679688 -1.425781 1.664062 -1.441406 1.65625 -1.453125 C 1.644531 -1.472656 1.628906 -1.488281 1.609375 -1.5 C 1.597656 -1.519531 1.578125 -1.53125 1.546875 -1.53125 C 1.523438 -1.53125 1.507812 -1.523438 1.5 -1.515625 C 1.488281 -1.515625 1.46875 -1.5 1.4375 -1.46875 C 1.445312 -1.445312 1.453125 -1.421875 1.453125 -1.390625 C 1.453125 -1.359375 1.453125 -1.320312 1.453125 -1.28125 C 1.453125 -1.039062 1.382812 -0.847656 1.25 -0.703125 C 1.125 -0.566406 0.945312 -0.492188 0.71875 -0.484375 C 0.613281 -0.472656 0.535156 -0.457031 0.484375 -0.4375 C 0.441406 -0.414062 0.421875 -0.390625 0.421875 -0.359375 C 0.421875 -0.316406 0.445312 -0.28125 0.5 -0.25 C 0.550781 -0.226562 0.613281 -0.207031 0.6875 -0.1875 C 0.757812 -0.175781 0.835938 -0.164062 0.921875 -0.15625 C 1.003906 -0.144531 1.082031 -0.125 1.15625 -0.09375 C 1.226562 -0.0625 1.285156 -0.0195312 1.328125 0.03125 C 1.378906 0.0820312 1.40625 0.148438 1.40625 0.234375 Z M 0.734375 -0.625 C 0.785156 -0.625 0.832031 -0.644531 0.875 -0.6875 C 0.925781 -0.726562 0.972656 -0.78125 1.015625 -0.84375 C 1.054688 -0.914062 1.085938 -0.992188 1.109375 -1.078125 C 1.140625 -1.160156 1.15625 -1.25 1.15625 -1.34375 C 1.15625 -1.425781 1.132812 -1.492188 1.09375 -1.546875 C 1.050781 -1.597656 1 -1.625 0.9375 -1.625 C 0.882812 -1.625 0.832031 -1.601562 0.78125 -1.5625 C 0.726562 -1.519531 0.679688 -1.460938 0.640625 -1.390625 C 0.597656 -1.316406 0.5625 -1.238281 0.53125 -1.15625 C 0.507812 -1.070312 0.5 -0.984375 0.5 -0.890625 C 0.5 -0.816406 0.519531 -0.753906 0.5625 -0.703125 C 0.601562 -0.648438 0.660156 -0.625 0.734375 -0.625 Z M 0.734375 -0.625 "/></g></g></g><g fill="#222222" fill-opacity="1"><g transform="translate(50.707257, 5.092278)"><g><path d="M 0.421875 -1.078125 C 0.453125 -1.160156 0.472656 -1.226562 0.484375 -1.28125 C 0.503906 -1.332031 0.515625 -1.375 0.515625 -1.40625 C 0.515625 -1.4375 0.507812 -1.453125 0.5 -1.453125 C 0.488281 -1.460938 0.476562 -1.46875 0.46875 -1.46875 C 0.4375 -1.46875 0.40625 -1.457031 0.375 -1.4375 C 0.351562 -1.414062 0.328125 -1.390625 0.296875 -1.359375 C 0.273438 -1.328125 0.25 -1.296875 0.21875 -1.265625 C 0.195312 -1.234375 0.1875 -1.210938 0.1875 -1.203125 L 0.09375 -1.25 C 0.113281 -1.300781 0.144531 -1.351562 0.1875 -1.40625 C 0.238281 -1.46875 0.289062 -1.523438 0.34375 -1.578125 C 0.40625 -1.628906 0.46875 -1.671875 0.53125 -1.703125 C 0.59375 -1.734375 0.65625 -1.75 0.71875 -1.75 C 0.769531 -1.75 0.804688 -1.734375 0.828125 -1.703125 C 0.859375 -1.671875 0.875 -1.613281 0.875 -1.53125 C 0.875 -1.46875 0.851562 -1.382812 0.8125 -1.28125 C 0.78125 -1.175781 0.734375 -1.039062 0.671875 -0.875 L 0.546875 -0.546875 C 0.546875 -0.535156 0.539062 -0.519531 0.53125 -0.5 C 0.519531 -0.476562 0.507812 -0.453125 0.5 -0.421875 C 0.5 -0.398438 0.492188 -0.375 0.484375 -0.34375 C 0.484375 -0.320312 0.484375 -0.304688 0.484375 -0.296875 C 0.484375 -0.273438 0.488281 -0.253906 0.5 -0.234375 C 0.507812 -0.222656 0.523438 -0.21875 0.546875 -0.21875 C 0.578125 -0.21875 0.609375 -0.226562 0.640625 -0.25 C 0.679688 -0.28125 0.71875 -0.3125 0.75 -0.34375 C 0.78125 -0.382812 0.804688 -0.421875 0.828125 -0.453125 C 0.859375 -0.492188 0.882812 -0.53125 0.90625 -0.5625 L 1 -0.5 C 0.96875 -0.445312 0.929688 -0.390625 0.890625 -0.328125 C 0.847656 -0.265625 0.796875 -0.207031 0.734375 -0.15625 C 0.679688 -0.101562 0.617188 -0.0546875 0.546875 -0.015625 C 0.484375 0.015625 0.414062 0.03125 0.34375 0.03125 C 0.28125 0.03125 0.234375 0.015625 0.203125 -0.015625 C 0.171875 -0.046875 0.15625 -0.0976562 0.15625 -0.171875 C 0.15625 -0.234375 0.164062 -0.300781 0.1875 -0.375 C 0.207031 -0.445312 0.238281 -0.539062 0.28125 -0.65625 Z M 0.90625 -2.28125 C 0.851562 -2.28125 0.804688 -2.296875 0.765625 -2.328125 C 0.722656 -2.367188 0.703125 -2.421875 0.703125 -2.484375 C 0.703125 -2.546875 0.71875 -2.597656 0.75 -2.640625 C 0.789062 -2.679688 0.84375 -2.703125 0.90625 -2.703125 C 0.96875 -2.703125 1.015625 -2.679688 1.046875 -2.640625 C 1.085938 -2.597656 1.109375 -2.546875 1.109375 -2.484375 C 1.109375 -2.429688 1.085938 -2.382812 1.046875 -2.34375 C 1.003906 -2.300781 0.957031 -2.28125 0.90625 -2.28125 Z M 0.90625 -2.28125 "/></g></g></g><g fill="#222222" fill-opacity="1"><g transform="translate(51.823156, 5.092278)"><g><path d="M 0.765625 -1.453125 L 0.5 -0.5625 C 0.457031 -0.445312 0.4375 -0.359375 0.4375 -0.296875 C 0.4375 -0.273438 0.441406 -0.253906 0.453125 -0.234375 C 0.460938 -0.222656 0.476562 -0.21875 0.5 -0.21875 C 0.539062 -0.21875 0.582031 -0.234375 0.625 -0.265625 C 0.664062 -0.296875 0.707031 -0.328125 0.75 -0.359375 C 0.789062 -0.398438 0.828125 -0.441406 0.859375 -0.484375 C 0.890625 -0.523438 0.910156 -0.5625 0.921875 -0.59375 L 1.015625 -0.53125 C 0.984375 -0.457031 0.9375 -0.382812 0.875 -0.3125 C 0.820312 -0.25 0.765625 -0.191406 0.703125 -0.140625 C 0.640625 -0.0859375 0.578125 -0.046875 0.515625 -0.015625 C 0.453125 0.015625 0.394531 0.03125 0.34375 0.03125 C 0.257812 0.03125 0.203125 0.015625 0.171875 -0.015625 C 0.140625 -0.046875 0.125 -0.0976562 0.125 -0.171875 C 0.125 -0.222656 0.128906 -0.285156 0.140625 -0.359375 C 0.160156 -0.429688 0.1875 -0.53125 0.21875 -0.65625 L 0.46875 -1.453125 L 0.1875 -1.453125 L 0.234375 -1.609375 L 0.515625 -1.609375 L 0.671875 -2.15625 L 0.984375 -2.15625 L 0.8125 -1.609375 L 1.15625 -1.609375 L 1.125 -1.453125 Z M 0.765625 -1.453125 "/></g></g></g><g fill="#222222" fill-opacity="1"><g transform="translate(53.007177, 5.092278)"><g><path d="M 1.15625 -1.015625 C 1.195312 -1.117188 1.222656 -1.203125 1.234375 -1.265625 C 1.253906 -1.335938 1.265625 -1.398438 1.265625 -1.453125 C 1.265625 -1.492188 1.253906 -1.523438 1.234375 -1.546875 C 1.222656 -1.566406 1.195312 -1.578125 1.15625 -1.578125 C 1.082031 -1.578125 1.015625 -1.550781 0.953125 -1.5 C 0.890625 -1.445312 0.820312 -1.363281 0.75 -1.25 C 0.6875 -1.144531 0.617188 -1.003906 0.546875 -0.828125 C 0.472656 -0.660156 0.398438 -0.457031 0.328125 -0.21875 L 0.25 0 L -0.015625 0 L 0.625 -2.203125 C 0.632812 -2.253906 0.644531 -2.300781 0.65625 -2.34375 C 0.664062 -2.382812 0.671875 -2.414062 0.671875 -2.4375 C 0.671875 -2.488281 0.648438 -2.519531 0.609375 -2.53125 C 0.566406 -2.550781 0.488281 -2.5625 0.375 -2.5625 L 0.40625 -2.703125 L 1.0625 -2.703125 L 0.703125 -1.4375 C 0.773438 -1.539062 0.851562 -1.617188 0.9375 -1.671875 C 1.03125 -1.722656 1.128906 -1.75 1.234375 -1.75 C 1.335938 -1.75 1.414062 -1.71875 1.46875 -1.65625 C 1.519531 -1.601562 1.546875 -1.519531 1.546875 -1.40625 C 1.546875 -1.332031 1.535156 -1.242188 1.515625 -1.140625 C 1.492188 -1.046875 1.460938 -0.941406 1.421875 -0.828125 C 1.378906 -0.703125 1.34375 -0.601562 1.3125 -0.53125 C 1.289062 -0.46875 1.273438 -0.421875 1.265625 -0.390625 C 1.253906 -0.359375 1.242188 -0.332031 1.234375 -0.3125 C 1.234375 -0.300781 1.234375 -0.289062 1.234375 -0.28125 C 1.234375 -0.238281 1.253906 -0.21875 1.296875 -0.21875 C 1.335938 -0.21875 1.390625 -0.238281 1.453125 -0.28125 C 1.523438 -0.332031 1.59375 -0.40625 1.65625 -0.5 L 1.75 -0.4375 C 1.707031 -0.375 1.660156 -0.3125 1.609375 -0.25 C 1.566406 -0.195312 1.515625 -0.148438 1.453125 -0.109375 C 1.390625 -0.0664062 1.328125 -0.03125 1.265625 0 C 1.203125 0.0195312 1.144531 0.03125 1.09375 0.03125 C 1.03125 0.03125 0.984375 0.015625 0.953125 -0.015625 C 0.929688 -0.046875 0.921875 -0.0976562 0.921875 -0.171875 C 0.921875 -0.210938 0.925781 -0.25 0.9375 -0.28125 C 0.945312 -0.320312 0.957031 -0.375 0.96875 -0.4375 C 0.988281 -0.5 1.007812 -0.578125 1.03125 -0.671875 C 1.0625 -0.765625 1.101562 -0.878906 1.15625 -1.015625 Z M 1.15625 -1.015625 "/></g></g></g><g fill="#222222" fill-opacity="1"><g transform="translate(54.869172, 5.092278)"><g><path d="M 0.546875 -0.203125 C 0.578125 -0.203125 0.617188 -0.222656 0.671875 -0.265625 C 0.734375 -0.316406 0.796875 -0.382812 0.859375 -0.46875 C 0.921875 -0.550781 0.984375 -0.644531 1.046875 -0.75 C 1.109375 -0.851562 1.160156 -0.960938 1.203125 -1.078125 L 1.4375 -1.71875 L 1.734375 -1.71875 L 1.5 -0.984375 C 1.46875 -0.867188 1.4375 -0.769531 1.40625 -0.6875 C 1.382812 -0.613281 1.363281 -0.550781 1.34375 -0.5 C 1.332031 -0.445312 1.320312 -0.40625 1.3125 -0.375 C 1.3125 -0.34375 1.3125 -0.316406 1.3125 -0.296875 C 1.3125 -0.242188 1.332031 -0.21875 1.375 -0.21875 C 1.394531 -0.21875 1.421875 -0.222656 1.453125 -0.234375 C 1.484375 -0.253906 1.515625 -0.28125 1.546875 -0.3125 C 1.578125 -0.351562 1.601562 -0.394531 1.625 -0.4375 C 1.65625 -0.488281 1.679688 -0.539062 1.703125 -0.59375 L 1.8125 -0.546875 C 1.78125 -0.472656 1.738281 -0.398438 1.6875 -0.328125 C 1.644531 -0.265625 1.597656 -0.203125 1.546875 -0.140625 C 1.492188 -0.0859375 1.4375 -0.046875 1.375 -0.015625 C 1.320312 0.015625 1.265625 0.03125 1.203125 0.03125 C 1.140625 0.03125 1.09375 0.0078125 1.0625 -0.03125 C 1.039062 -0.0820312 1.03125 -0.15625 1.03125 -0.25 C 1.03125 -0.28125 1.03125 -0.316406 1.03125 -0.359375 C 1.039062 -0.398438 1.050781 -0.441406 1.0625 -0.484375 L 1.046875 -0.5 C 0.992188 -0.394531 0.9375 -0.304688 0.875 -0.234375 C 0.820312 -0.171875 0.769531 -0.117188 0.71875 -0.078125 C 0.664062 -0.0351562 0.613281 -0.0078125 0.5625 0 C 0.507812 0.0195312 0.460938 0.03125 0.421875 0.03125 C 0.316406 0.03125 0.242188 0.00390625 0.203125 -0.046875 C 0.160156 -0.109375 0.140625 -0.179688 0.140625 -0.265625 C 0.140625 -0.347656 0.15625 -0.441406 0.1875 -0.546875 C 0.226562 -0.660156 0.269531 -0.769531 0.3125 -0.875 C 0.351562 -0.96875 0.382812 -1.046875 0.40625 -1.109375 C 0.4375 -1.179688 0.457031 -1.238281 0.46875 -1.28125 C 0.488281 -1.332031 0.5 -1.367188 0.5 -1.390625 C 0.507812 -1.421875 0.515625 -1.445312 0.515625 -1.46875 C 0.515625 -1.476562 0.515625 -1.484375 0.515625 -1.484375 C 0.515625 -1.492188 0.503906 -1.5 0.484375 -1.5 C 0.460938 -1.5 0.425781 -1.472656 0.375 -1.421875 C 0.320312 -1.378906 0.25 -1.300781 0.15625 -1.1875 L 0.0625 -1.234375 C 0.09375 -1.296875 0.132812 -1.359375 0.1875 -1.421875 C 0.238281 -1.484375 0.289062 -1.535156 0.34375 -1.578125 C 0.40625 -1.628906 0.46875 -1.671875 0.53125 -1.703125 C 0.59375 -1.734375 0.648438 -1.75 0.703125 -1.75 C 0.804688 -1.75 0.859375 -1.6875 0.859375 -1.5625 C 0.859375 -1.488281 0.835938 -1.390625 0.796875 -1.265625 C 0.753906 -1.148438 0.695312 -1.007812 0.625 -0.84375 C 0.582031 -0.738281 0.546875 -0.640625 0.515625 -0.546875 C 0.492188 -0.460938 0.484375 -0.390625 0.484375 -0.328125 C 0.484375 -0.273438 0.488281 -0.238281 0.5 -0.21875 C 0.507812 -0.207031 0.523438 -0.203125 0.546875 -0.203125 Z M 0.546875 -0.203125 "/></g></g></g><g fill="#222222" fill-opacity="1"><g transform="translate(56.792801, 5.092278)"><g><path d="M 0.65625 -1.4375 L 0.671875 -1.4375 C 0.734375 -1.539062 0.8125 -1.617188 0.90625 -1.671875 C 1 -1.722656 1.097656 -1.75 1.203125 -1.75 C 1.335938 -1.75 1.441406 -1.707031 1.515625 -1.625 C 1.585938 -1.539062 1.625 -1.429688 1.625 -1.296875 C 1.625 -1.191406 1.609375 -1.082031 1.578125 -0.96875 C 1.546875 -0.863281 1.503906 -0.765625 1.453125 -0.671875 C 1.398438 -0.578125 1.335938 -0.484375 1.265625 -0.390625 C 1.191406 -0.304688 1.113281 -0.234375 1.03125 -0.171875 C 0.945312 -0.109375 0.859375 -0.0546875 0.765625 -0.015625 C 0.679688 0.015625 0.597656 0.03125 0.515625 0.03125 C 0.390625 0.03125 0.285156 -0.00390625 0.203125 -0.078125 C 0.128906 -0.148438 0.09375 -0.25 0.09375 -0.375 C 0.09375 -0.425781 0.101562 -0.503906 0.125 -0.609375 C 0.144531 -0.710938 0.179688 -0.835938 0.234375 -0.984375 L 0.625 -2.25 C 0.632812 -2.28125 0.644531 -2.316406 0.65625 -2.359375 C 0.664062 -2.398438 0.671875 -2.429688 0.671875 -2.453125 C 0.671875 -2.523438 0.585938 -2.5625 0.421875 -2.5625 L 0.453125 -2.671875 L 1.078125 -2.6875 Z M 0.5625 -0.140625 C 0.613281 -0.140625 0.664062 -0.15625 0.71875 -0.1875 C 0.78125 -0.21875 0.835938 -0.265625 0.890625 -0.328125 C 0.941406 -0.390625 0.992188 -0.457031 1.046875 -0.53125 C 1.097656 -0.613281 1.140625 -0.695312 1.171875 -0.78125 C 1.210938 -0.875 1.242188 -0.96875 1.265625 -1.0625 C 1.285156 -1.15625 1.296875 -1.238281 1.296875 -1.3125 C 1.296875 -1.394531 1.28125 -1.457031 1.25 -1.5 C 1.21875 -1.550781 1.175781 -1.578125 1.125 -1.578125 C 1.070312 -1.578125 1.019531 -1.554688 0.96875 -1.515625 C 0.914062 -1.484375 0.859375 -1.4375 0.796875 -1.375 C 0.742188 -1.3125 0.691406 -1.238281 0.640625 -1.15625 C 0.597656 -1.082031 0.554688 -1 0.515625 -0.90625 C 0.484375 -0.820312 0.457031 -0.734375 0.4375 -0.640625 C 0.414062 -0.554688 0.40625 -0.476562 0.40625 -0.40625 C 0.40625 -0.226562 0.457031 -0.140625 0.5625 -0.140625 Z M 0.5625 -0.140625 "/></g></g></g><g fill="#222222" fill-opacity="1"><g transform="translate(58.525039, 5.092278)"><g><path d="M 0.21875 0.03125 C 0.15625 0.03125 0.101562 0.0078125 0.0625 -0.03125 C 0.0195312 -0.0703125 0 -0.125 0 -0.1875 C 0 -0.25 0.0195312 -0.300781 0.0625 -0.34375 C 0.101562 -0.394531 0.15625 -0.421875 0.21875 -0.421875 C 0.289062 -0.421875 0.347656 -0.394531 0.390625 -0.34375 C 0.429688 -0.300781 0.453125 -0.25 0.453125 -0.1875 C 0.453125 -0.125 0.425781 -0.0703125 0.375 -0.03125 C 0.332031 0.0078125 0.28125 0.03125 0.21875 0.03125 Z M 0.21875 0.03125 "/></g></g></g><g fill="#222222" fill-opacity="1"><g transform="translate(59.374939, 5.092278)"><g><path d="M 1.21875 -0.515625 C 1.125 -0.335938 1.015625 -0.203125 0.890625 -0.109375 C 0.773438 -0.015625 0.648438 0.03125 0.515625 0.03125 C 0.367188 0.03125 0.253906 -0.015625 0.171875 -0.109375 C 0.0859375 -0.203125 0.046875 -0.332031 0.046875 -0.5 C 0.046875 -0.59375 0.0546875 -0.6875 0.078125 -0.78125 C 0.109375 -0.882812 0.144531 -0.984375 0.1875 -1.078125 C 0.238281 -1.171875 0.296875 -1.257812 0.359375 -1.34375 C 0.429688 -1.425781 0.503906 -1.492188 0.578125 -1.546875 C 0.648438 -1.609375 0.722656 -1.65625 0.796875 -1.6875 C 0.878906 -1.726562 0.960938 -1.75 1.046875 -1.75 C 1.148438 -1.75 1.234375 -1.722656 1.296875 -1.671875 C 1.359375 -1.617188 1.390625 -1.546875 1.390625 -1.453125 C 1.390625 -1.398438 1.375 -1.359375 1.34375 -1.328125 C 1.3125 -1.296875 1.273438 -1.28125 1.234375 -1.28125 C 1.179688 -1.28125 1.140625 -1.296875 1.109375 -1.328125 C 1.078125 -1.359375 1.0625 -1.394531 1.0625 -1.4375 C 1.0625 -1.46875 1.0625 -1.488281 1.0625 -1.5 C 1.070312 -1.519531 1.078125 -1.539062 1.078125 -1.5625 C 1.078125 -1.59375 1.050781 -1.609375 1 -1.609375 C 0.9375 -1.609375 0.863281 -1.570312 0.78125 -1.5 C 0.707031 -1.4375 0.640625 -1.347656 0.578125 -1.234375 C 0.523438 -1.128906 0.476562 -1.007812 0.4375 -0.875 C 0.40625 -0.75 0.390625 -0.625 0.390625 -0.5 C 0.390625 -0.394531 0.40625 -0.3125 0.4375 -0.25 C 0.476562 -0.1875 0.535156 -0.15625 0.609375 -0.15625 C 0.648438 -0.15625 0.691406 -0.164062 0.734375 -0.1875 C 0.773438 -0.207031 0.816406 -0.238281 0.859375 -0.28125 C 0.898438 -0.320312 0.941406 -0.367188 0.984375 -0.421875 C 1.023438 -0.472656 1.0625 -0.53125 1.09375 -0.59375 Z M 1.21875 -0.515625 "/></g></g></g><g fill="#222222" fill-opacity="1"><g transform="translate(60.805496, 5.092278)"><g><path d="M 0.609375 0.03125 C 0.535156 0.03125 0.46875 0.015625 0.40625 -0.015625 C 0.34375 -0.046875 0.285156 -0.0859375 0.234375 -0.140625 C 0.179688 -0.191406 0.140625 -0.257812 0.109375 -0.34375 C 0.0859375 -0.425781 0.078125 -0.519531 0.078125 -0.625 C 0.078125 -0.757812 0.101562 -0.894531 0.15625 -1.03125 C 0.207031 -1.164062 0.273438 -1.285156 0.359375 -1.390625 C 0.453125 -1.503906 0.550781 -1.59375 0.65625 -1.65625 C 0.769531 -1.71875 0.890625 -1.75 1.015625 -1.75 C 1.085938 -1.75 1.15625 -1.734375 1.21875 -1.703125 C 1.289062 -1.679688 1.347656 -1.640625 1.390625 -1.578125 C 1.441406 -1.523438 1.476562 -1.457031 1.5 -1.375 C 1.53125 -1.300781 1.546875 -1.21875 1.546875 -1.125 C 1.546875 -0.988281 1.519531 -0.851562 1.46875 -0.71875 C 1.414062 -0.582031 1.34375 -0.457031 1.25 -0.34375 C 1.164062 -0.226562 1.066406 -0.132812 0.953125 -0.0625 C 0.835938 0 0.722656 0.03125 0.609375 0.03125 Z M 0.625 -0.125 C 0.695312 -0.125 0.769531 -0.160156 0.84375 -0.234375 C 0.914062 -0.316406 0.976562 -0.414062 1.03125 -0.53125 C 1.09375 -0.644531 1.140625 -0.769531 1.171875 -0.90625 C 1.210938 -1.039062 1.234375 -1.171875 1.234375 -1.296875 C 1.234375 -1.410156 1.210938 -1.488281 1.171875 -1.53125 C 1.128906 -1.582031 1.078125 -1.609375 1.015625 -1.609375 C 0.960938 -1.609375 0.910156 -1.585938 0.859375 -1.546875 C 0.816406 -1.515625 0.769531 -1.46875 0.71875 -1.40625 C 0.675781 -1.351562 0.632812 -1.285156 0.59375 -1.203125 C 0.5625 -1.128906 0.53125 -1.050781 0.5 -0.96875 C 0.476562 -0.882812 0.457031 -0.796875 0.4375 -0.703125 C 0.425781 -0.617188 0.421875 -0.539062 0.421875 -0.46875 C 0.421875 -0.34375 0.4375 -0.253906 0.46875 -0.203125 C 0.507812 -0.148438 0.5625 -0.125 0.625 -0.125 Z M 0.625 -0.125 "/></g></g></g><g fill="#222222" fill-opacity="1"><g transform="translate(62.502052, 5.092278)"><g><path d="M 2.15625 -1.078125 C 2.1875 -1.160156 2.207031 -1.222656 2.21875 -1.265625 C 2.238281 -1.316406 2.25 -1.351562 2.25 -1.375 C 2.257812 -1.40625 2.265625 -1.425781 2.265625 -1.4375 C 2.273438 -1.457031 2.28125 -1.472656 2.28125 -1.484375 C 2.28125 -1.554688 2.257812 -1.59375 2.21875 -1.59375 C 2.15625 -1.59375 2.082031 -1.550781 2 -1.46875 C 1.925781 -1.382812 1.84375 -1.269531 1.75 -1.125 C 1.71875 -1.070312 1.6875 -1.019531 1.65625 -0.96875 C 1.625 -0.914062 1.59375 -0.847656 1.5625 -0.765625 C 1.53125 -0.691406 1.492188 -0.59375 1.453125 -0.46875 C 1.410156 -0.34375 1.351562 -0.1875 1.28125 0 L 0.984375 0 L 1.1875 -0.65625 C 1.238281 -0.789062 1.28125 -0.90625 1.3125 -1 C 1.34375 -1.09375 1.363281 -1.171875 1.375 -1.234375 C 1.394531 -1.296875 1.40625 -1.34375 1.40625 -1.375 C 1.414062 -1.414062 1.421875 -1.453125 1.421875 -1.484375 C 1.421875 -1.554688 1.394531 -1.59375 1.34375 -1.59375 C 1.300781 -1.59375 1.25 -1.566406 1.1875 -1.515625 C 1.125 -1.460938 1.0625 -1.394531 1 -1.3125 C 0.9375 -1.238281 0.875 -1.148438 0.8125 -1.046875 C 0.757812 -0.941406 0.710938 -0.835938 0.671875 -0.734375 L 0.40625 0 L 0.125 0 L 0.359375 -0.75 C 0.398438 -0.875 0.429688 -0.976562 0.453125 -1.0625 C 0.484375 -1.144531 0.503906 -1.210938 0.515625 -1.265625 C 0.535156 -1.328125 0.546875 -1.375 0.546875 -1.40625 C 0.554688 -1.4375 0.5625 -1.460938 0.5625 -1.484375 C 0.5625 -1.546875 0.546875 -1.578125 0.515625 -1.578125 C 0.484375 -1.578125 0.453125 -1.5625 0.421875 -1.53125 C 0.390625 -1.5 0.359375 -1.457031 0.328125 -1.40625 C 0.296875 -1.363281 0.265625 -1.3125 0.234375 -1.25 C 0.203125 -1.1875 0.175781 -1.117188 0.15625 -1.046875 L 0.0625 -1.109375 C 0.132812 -1.328125 0.21875 -1.488281 0.3125 -1.59375 C 0.40625 -1.695312 0.515625 -1.75 0.640625 -1.75 C 0.703125 -1.75 0.75 -1.726562 0.78125 -1.6875 C 0.8125 -1.65625 0.828125 -1.59375 0.828125 -1.5 C 0.828125 -1.394531 0.804688 -1.296875 0.765625 -1.203125 L 0.78125 -1.1875 C 0.976562 -1.5625 1.191406 -1.75 1.421875 -1.75 C 1.503906 -1.75 1.566406 -1.722656 1.609375 -1.671875 C 1.660156 -1.628906 1.6875 -1.5625 1.6875 -1.46875 C 1.6875 -1.4375 1.679688 -1.398438 1.671875 -1.359375 C 1.671875 -1.316406 1.660156 -1.257812 1.640625 -1.1875 C 1.703125 -1.28125 1.757812 -1.363281 1.8125 -1.4375 C 1.863281 -1.507812 1.914062 -1.566406 1.96875 -1.609375 C 2.019531 -1.660156 2.070312 -1.695312 2.125 -1.71875 C 2.1875 -1.738281 2.242188 -1.75 2.296875 -1.75 C 2.378906 -1.75 2.441406 -1.726562 2.484375 -1.6875 C 2.523438 -1.644531 2.546875 -1.570312 2.546875 -1.46875 C 2.546875 -1.4375 2.539062 -1.398438 2.53125 -1.359375 C 2.53125 -1.328125 2.523438 -1.285156 2.515625 -1.234375 C 2.503906 -1.191406 2.488281 -1.140625 2.46875 -1.078125 C 2.445312 -1.015625 2.421875 -0.9375 2.390625 -0.84375 C 2.347656 -0.738281 2.316406 -0.648438 2.296875 -0.578125 C 2.273438 -0.515625 2.257812 -0.460938 2.25 -0.421875 C 2.238281 -0.390625 2.226562 -0.363281 2.21875 -0.34375 C 2.21875 -0.320312 2.21875 -0.300781 2.21875 -0.28125 C 2.21875 -0.238281 2.234375 -0.21875 2.265625 -0.21875 C 2.296875 -0.21875 2.34375 -0.25 2.40625 -0.3125 C 2.46875 -0.375 2.550781 -0.46875 2.65625 -0.59375 L 2.75 -0.5625 C 2.707031 -0.488281 2.65625 -0.414062 2.59375 -0.34375 C 2.539062 -0.269531 2.484375 -0.207031 2.421875 -0.15625 C 2.359375 -0.101562 2.296875 -0.0546875 2.234375 -0.015625 C 2.171875 0.015625 2.117188 0.03125 2.078125 0.03125 C 2.015625 0.03125 1.96875 0.0078125 1.9375 -0.03125 C 1.90625 -0.0820312 1.890625 -0.144531 1.890625 -0.21875 C 1.890625 -0.25 1.894531 -0.28125 1.90625 -0.3125 C 1.914062 -0.34375 1.925781 -0.390625 1.9375 -0.453125 C 1.957031 -0.515625 1.984375 -0.59375 2.015625 -0.6875 C 2.046875 -0.789062 2.09375 -0.921875 2.15625 -1.078125 Z M 2.15625 -1.078125 "/></g></g></g><g fill="#222222" fill-opacity="1"><g transform="translate(65.32424, 5.092278)"><g><path d="M 0.125 0 L -0.09375 0 L 1.28125 -2.5 L 1.484375 -2.5 Z M 0.125 0 "/></g></g></g></svg>